<?xml version="1.0" encoding="UTF-8"?>
<svg width="79px" height="92px" viewBox="0 0 79 92" version="1.1" xmlns="http://www.w3.org/2000/svg" xmlns:xlink="http://www.w3.org/1999/xlink">
    <!-- Generator: Sketch 40.1 (33804) - http://www.bohemiancoding.com/sketch -->
    <title>logo flat</title>
    <desc>Created with Sketch.</desc>
    <defs></defs>
    <g id="Page-1" stroke="none" stroke-width="1" fill="none" fill-rule="evenodd">
        <g id="Imengine-Material" transform="translate(-116.000000, -28.000000)">
            <g id="Main">
                <g id="logo-flat" transform="translate(109.000000, 19.000000)">
                    <g id="Group" transform="translate(64.509940, 58.117249) rotate(240.000000) translate(-64.509940, -58.117249) translate(37.744707, 27.932064)" stroke-width="1.11111111" stroke="#FFFFFF">
                        <polygon id="Path-7" points="25.174634 6.07700907 50.0995351 13.3129237 53.5230472 9.9898457 50.0995351 13.3129237"></polygon>
                        <polygon id="Path-3" points="5.39826086 31.5536814 5.39826086 35.4923948 8.34276679 37.1335254 30.5901449 49.934344 28.9543083 43.6980478 9.40638388 32.5096457 9.40638388 2.01333068 5.39826086 0.7004262"></polygon>
                        <path d="M0.283335215,36.8252837 L0.283335215,38.0581661 L1.61623029,38.7831095 L38.5817892,60.2413475 M19.5668101,4.53434387 L30.6904992,49.8295483 L5.49861514,35.3875991 L5.49861514,0.267404321 L19.5668101,4.53434387 Z" id="Path-2"></path>
                    </g>
                    <g id="Group" transform="translate(40.160753, 38.423370) rotate(120.000000) translate(-40.160753, -38.423370) translate(13.395520, 8.608555)" stroke-width="1.11111111" stroke="#FFFFFF">
                        <polygon id="Path-7" points="24.813617 5.4589334 49.0349006 13.4116794 53.1972646 9.48474879 49.0349006 13.4116794"></polygon>
                        <polygon id="Path-3" points="5.39826086 31.2254553 5.39826086 35.1641687 8.34276679 36.8052993 30.5901449 49.6061179 28.9543083 43.3698217 9.40638388 32.1814196 9.40638388 1.68510456 5.39826086 0.372200081"></polygon>
                        <path d="M0.0876642205,36.6611706 L0.0876642205,37.8940531 L1.42055929,38.6189964 L38.1609989,59.5053488 M19.3711391,4.37023081 L30.4948282,49.6654352 L5.30294415,35.223486 L5.30294415,0.103291262 L19.3711391,4.37023081 Z" id="Path-2"></path>
                    </g>
                    <g id="Group" transform="translate(8.525288, 33.287825)" stroke-width="1.11111111" stroke="#FFFFFF">
                        <polygon id="Path-7" points="29.7528293 12.9920578 50.0372035 18.900128 53.3088767 15.9460929 50.0372035 18.900128"></polygon>
                        <polygon id="Path-3" points="5.21527993 36.9525645 5.21527993 40.8912779 8.15978585 42.5324085 30.407164 55.3332272 28.7713273 49.0969309 9.22340295 37.9085288 9.22340295 7.4122138 5.21527993 6.09930933"></polygon>
                        <path d="M0,42.3289626 L0,43.561845 L1.33289507,44.2867884 L37.6048451,65.5082369 L0,43.561845 L0,-1.0526559e-14 M19.2834749,10.0380228 L30.407164,55.3332272 L5.21527993,40.8912779 L5.21527993,5.77108321 L19.2834749,10.0380228 Z" id="Path-2"></path>
                    </g>
                    <polygon id="Path-4" stroke="#FFFFFF" stroke-width="2.59259259" points="8.50589056 32.8226119 46.7844676 11.159688 84.40871 32.4943858 84.40871 77.133138 46.4573003 99.4525141 8.50589056 76.8049118 8.50589056 33.8072903"></polygon>
                    <polygon id="Path-6" fill="#FFFFFF" points="43.8399617 70.8968417 44.4942963 73.8508768 85.4740454 35.6182923 83.0162072 32.9809666"></polygon>
                    <polygon id="Path-6" fill="#FFFFFF" points="44.7119095 99.8915652 48.2026911 99.0134629 34.3521092 44.6387522 31.080436 43.6540738"></polygon>
                    <polygon id="Path-6" fill="#FFFFFF" points="61.8341645 49.8903701 64.7786705 47.2645611 9.5089036 30.9279524 8.4843795 34.3890453"></polygon>
                </g>
            </g>
        </g>
    </g>
</svg>